<svg width="14" height="19" viewBox="0 0 14 19" fill="none" xmlns="http://www.w3.org/2000/svg">
<path d="M4.60931 18.748C4.56634 18.748 4.52337 18.7441 4.48431 18.7363C4.29681 18.7051 4.13275 18.5996 4.02337 18.4434C3.914 18.2871 3.87103 18.0957 3.90619 17.9082L4.99994 11.873H0.749937C0.50775 11.873 0.289 11.7363 0.187437 11.5176C0.0819684 11.2988 0.113218 11.041 0.265562 10.8535L8.82416 0.275391C8.96087 0.103516 9.1679 -0.00195312 9.39056 -0.00195312C9.4179 -0.00195312 9.45306 -0.00195311 9.4804 0.00195314C9.67181 0.0253906 9.83978 0.123047 9.96087 0.275391C10.0781 0.427734 10.1327 0.615234 10.1093 0.806641C10.1093 0.818359 10.1054 0.830078 10.1054 0.841797L8.99994 6.87305H13.2499C13.4921 6.87305 13.7109 7.00977 13.8124 7.22852C13.9179 7.44727 13.8867 7.70508 13.7343 7.89258L5.17572 18.4746C5.039 18.6465 4.82806 18.748 4.60931 18.748ZM2.05853 10.623H5.74994C5.93353 10.623 6.10931 10.7051 6.23041 10.8457C6.34759 10.9863 6.39837 11.1738 6.36712 11.3574L5.50775 16.0723L11.9413 8.12305H8.24994C8.06634 8.12305 7.89056 8.04102 7.76947 7.89648C7.65228 7.75586 7.6015 7.56445 7.63275 7.38477L8.49603 2.66602L2.05853 10.623Z" fill="white"/>
</svg>
