<svg width="16" height="17" viewBox="0 0 16 17" fill="none" xmlns="http://www.w3.org/2000/svg">
<path d="M8.66679 8.33335C8.54012 8.33335 8.41346 8.28668 8.31346 8.18668C8.12012 7.99335 8.12012 7.67335 8.31346 7.48001L13.7801 2.01335C13.9735 1.82001 14.2935 1.82001 14.4868 2.01335C14.6801 2.20668 14.6801 2.52668 14.4868 2.72001L9.02012 8.18668C8.92012 8.28668 8.79346 8.33335 8.66679 8.33335Z" fill="#58E9D6"/>
<path d="M14.6668 5.53334C14.3935 5.53334 14.1668 5.30668 14.1668 5.03334V2.33334H11.4668C11.1935 2.33334 10.9668 2.10668 10.9668 1.83334C10.9668 1.56001 11.1935 1.33334 11.4668 1.33334H14.6668C14.9401 1.33334 15.1668 1.56001 15.1668 1.83334V5.03334C15.1668 5.30668 14.9401 5.53334 14.6668 5.53334Z" fill="#58E9D6"/>
<path d="M10.0002 15.6667H6.00016C2.38016 15.6667 0.833496 14.12 0.833496 10.5V6.50001C0.833496 2.88001 2.38016 1.33334 6.00016 1.33334H7.3335C7.60683 1.33334 7.8335 1.56001 7.8335 1.83334C7.8335 2.10668 7.60683 2.33334 7.3335 2.33334H6.00016C2.92683 2.33334 1.8335 3.42668 1.8335 6.50001V10.5C1.8335 13.5733 2.92683 14.6667 6.00016 14.6667H10.0002C13.0735 14.6667 14.1668 13.5733 14.1668 10.5V9.16668C14.1668 8.89334 14.3935 8.66668 14.6668 8.66668C14.9402 8.66668 15.1668 8.89334 15.1668 9.16668V10.5C15.1668 14.12 13.6202 15.6667 10.0002 15.6667Z" fill="#58E9D6"/>
</svg>
