<svg width="36" height="36" viewBox="0 0 36 36" fill="none" xmlns="http://www.w3.org/2000/svg">
<path d="M27.5398 34.125H8.3848C6.1048 34.125 4.0198 32.97 2.8198 31.02C1.6198 29.07 1.5148 26.7 2.5348 24.645L5.1148 19.47C5.9548 17.79 7.3048 16.74 8.8198 16.575C10.3348 16.41 11.8798 17.16 13.0498 18.615L13.3798 19.035C14.0398 19.845 14.8048 20.28 15.5548 20.205C16.3048 20.145 16.9948 19.605 17.5048 18.69L20.3398 13.575C21.5098 11.46 23.0698 10.365 24.7648 10.44C26.4448 10.53 27.8848 11.79 28.8448 14.01L33.5398 24.975C34.4098 27 34.1998 29.31 32.9848 31.155C31.7848 33.03 29.7448 34.125 27.5398 34.125ZM9.2398 18.825C9.1798 18.825 9.1198 18.825 9.0598 18.84C8.3098 18.915 7.6198 19.515 7.1248 20.49L4.5448 25.665C3.8698 27 3.9448 28.575 4.7248 29.85C5.5048 31.125 6.8848 31.89 8.3848 31.89H27.5248C28.9948 31.89 30.2998 31.185 31.1098 29.955C31.9198 28.725 32.0548 27.255 31.4698 25.905L26.7748 14.94C26.2048 13.59 25.4098 12.765 24.6448 12.735C23.9398 12.69 23.0248 13.44 22.3048 14.715L19.4698 19.83C18.5998 21.39 17.2348 22.365 15.7498 22.5C14.2648 22.62 12.7498 21.9 11.6248 20.49L11.2948 20.07C10.6648 19.245 9.9448 18.825 9.2398 18.825Z" fill="#9DA4AE"/>
<path d="M10.4551 13.125C7.36508 13.125 4.83008 10.605 4.83008 7.5C4.83008 4.395 7.35008 1.875 10.4551 1.875C13.5601 1.875 16.0801 4.395 16.0801 7.5C16.0801 10.605 13.5601 13.125 10.4551 13.125ZM10.4551 4.125C8.59508 4.125 7.08008 5.64 7.08008 7.5C7.08008 9.36 8.59508 10.875 10.4551 10.875C12.3151 10.875 13.8301 9.36 13.8301 7.5C13.8301 5.64 12.3151 4.125 10.4551 4.125Z" fill="#9DA4AE"/>
</svg>
