<svg width="24" height="25" viewBox="0 0 24 25" fill="none" xmlns="http://www.w3.org/2000/svg">
<path d="M12 23.7285C6.76 23.7285 2.5 19.4685 2.5 14.2285C2.5 8.98852 6.76 4.72852 12 4.72852C17.24 4.72852 21.5 8.98852 21.5 14.2285C21.5 19.4685 17.24 23.7285 12 23.7285ZM12 6.22852C7.59 6.22852 4 9.81852 4 14.2285C4 18.6385 7.59 22.2285 12 22.2285C16.41 22.2285 20 18.6385 20 14.2285C20 9.81852 16.41 6.22852 12 6.22852Z" fill="white"/>
<path d="M12 14.7285C11.59 14.7285 11.25 14.3885 11.25 13.9785V8.97852C11.25 8.56852 11.59 8.22852 12 8.22852C12.41 8.22852 12.75 8.56852 12.75 8.97852V13.9785C12.75 14.3885 12.41 14.7285 12 14.7285Z" fill="white"/>
<path d="M15 3.72852H9C8.59 3.72852 8.25 3.38852 8.25 2.97852C8.25 2.56852 8.59 2.22852 9 2.22852H15C15.41 2.22852 15.75 2.56852 15.75 2.97852C15.75 3.38852 15.41 3.72852 15 3.72852Z" fill="white"/>
</svg>
