<svg width="24" height="25" viewBox="0 0 24 25" fill="none" xmlns="http://www.w3.org/2000/svg">
<path d="M12.1605 11.993C12.1305 11.993 12.1105 11.993 12.0805 11.993C12.0305 11.983 11.9605 11.983 11.9005 11.993C9.00055 11.903 6.81055 9.62305 6.81055 6.81305C6.81055 3.95305 9.14055 1.62305 12.0005 1.62305C14.8605 1.62305 17.1905 3.95305 17.1905 6.81305C17.1805 9.62305 14.9805 11.903 12.1905 11.993C12.1805 11.993 12.1705 11.993 12.1605 11.993ZM12.0005 3.12305C9.97055 3.12305 8.31055 4.78305 8.31055 6.81305C8.31055 8.81305 9.87055 10.423 11.8605 10.493C11.9105 10.483 12.0505 10.483 12.1805 10.493C14.1405 10.403 15.6805 8.79305 15.6905 6.81305C15.6905 4.78305 14.0305 3.12305 12.0005 3.12305Z" fill="white"/>
<path d="M12.1696 22.923C10.2096 22.923 8.23961 22.423 6.74961 21.423C5.35961 20.503 4.59961 19.243 4.59961 17.873C4.59961 16.503 5.35961 15.233 6.74961 14.303C9.74961 12.313 14.6096 12.313 17.5896 14.303C18.9696 15.223 19.7396 16.483 19.7396 17.853C19.7396 19.223 18.9796 20.493 17.5896 21.423C16.0896 22.423 14.1296 22.923 12.1696 22.923ZM7.57961 15.563C6.61961 16.203 6.09961 17.023 6.09961 17.883C6.09961 18.733 6.62961 19.553 7.57961 20.183C10.0696 21.853 14.2696 21.853 16.7596 20.183C17.7196 19.543 18.2396 18.723 18.2396 17.863C18.2396 17.013 17.7096 16.193 16.7596 15.563C14.2696 13.903 10.0696 13.903 7.57961 15.563Z" fill="white"/>
</svg>
