<svg width="38" height="38" viewBox="0 0 38 38" fill="none" xmlns="http://www.w3.org/2000/svg">
<path d="M23.7498 36.0209H14.2498C5.65234 36.0209 1.979 32.3475 1.979 23.75V14.25C1.979 5.65252 5.65234 1.97919 14.2498 1.97919H23.7498C32.3473 1.97919 36.0207 5.65252 36.0207 14.25V23.75C36.0207 32.3475 32.3473 36.0209 23.7498 36.0209ZM14.2498 4.35419C6.95067 4.35419 4.354 6.95085 4.354 14.25V23.75C4.354 31.0492 6.95067 33.6459 14.2498 33.6459H23.7498C31.049 33.6459 33.6457 31.0492 33.6457 23.75V14.25C33.6457 6.95085 31.049 4.35419 23.7498 4.35419H14.2498Z" fill="#9DA4AE"/>
<path d="M34.0102 12.445H3.99023C3.34107 12.445 2.80273 11.9067 2.80273 11.2575C2.80273 10.6083 3.32523 10.07 3.99023 10.07H34.0102C34.6594 10.07 35.1977 10.6083 35.1977 11.2575C35.1977 11.9067 34.6752 12.445 34.0102 12.445Z" fill="#9DA4AE"/>
<path d="M13.4902 12.2233C12.8411 12.2233 12.3027 11.685 12.3027 11.0358V3.34082C12.3027 2.69165 12.8411 2.15332 13.4902 2.15332C14.1394 2.15332 14.6777 2.69165 14.6777 3.34082V11.0358C14.6777 11.685 14.1394 12.2233 13.4902 12.2233Z" fill="#9DA4AE"/>
<path d="M24.5098 11.5108C23.8606 11.5108 23.3223 10.9725 23.3223 10.3233V3.34082C23.3223 2.69165 23.8606 2.15332 24.5098 2.15332C25.1589 2.15332 25.6973 2.69165 25.6973 3.34082V10.3233C25.6973 10.9883 25.1748 11.5108 24.5098 11.5108Z" fill="#9DA4AE"/>
<path d="M17.5592 28.69C16.9892 28.69 16.4508 28.5475 15.96 28.2783C14.8833 27.645 14.25 26.3783 14.25 24.7792V20.9792C14.25 19.38 14.8833 18.0975 15.9758 17.4642C17.0683 16.8308 18.4933 16.9258 19.8708 17.7333L23.1642 19.6333C24.5417 20.425 25.3492 21.6125 25.3492 22.8792C25.3492 24.1458 24.5417 25.3333 23.1483 26.125L19.855 28.025C19.095 28.4683 18.3033 28.69 17.5592 28.69ZM17.575 19.4275C17.4167 19.4275 17.2742 19.4592 17.1633 19.5225C16.8308 19.7125 16.625 20.2508 16.625 20.9792V24.7792C16.625 25.4917 16.8308 26.03 17.1633 26.2358C17.4958 26.4258 18.0658 26.3308 18.6833 25.9667L21.9767 24.0667C22.5942 23.7025 22.9742 23.2592 22.9742 22.8792C22.9742 22.4992 22.61 22.0558 21.9767 21.6917L18.6833 19.7917C18.2717 19.5542 17.8758 19.4275 17.575 19.4275Z" fill="#9DA4AE"/>
</svg>
